<svg width="1267" height="156" viewBox="0 0 1267 156" fill="none" xmlns="http://www.w3.org/2000/svg">
<path d="M0.117188 0.199999H14.5172V31.4H0.117188V0.199999ZM14.5078 0.199999H28.9078V31.4H14.5078V0.199999ZM28.8984 0.199999H43.2984V31.4H28.8984V0.199999ZM43.2891 0.199999H57.6891V31.4H43.2891V0.199999ZM57.6797 0.199999H72.0797V31.4H57.6797V0.199999ZM72.0703 0.199999H86.4703V31.4H72.0703V0.199999ZM86.4609 0.199999H100.861V31.4H86.4609V0.199999ZM129.633 0.199999H144.033V31.4H129.633V0.199999ZM144.023 0.199999H158.423V31.4H144.023V0.199999ZM158.414 0.199999H172.814V31.4H158.414V0.199999ZM172.805 0.199999H187.205V31.4H172.805V0.199999ZM187.195 0.199999H201.595V31.4H187.195V0.199999ZM201.586 0.199999H215.986V31.4H201.586V0.199999ZM244.758 0.199999H259.158V31.4H244.758V0.199999ZM259.148 0.199999H273.548V31.4H259.148V0.199999ZM331.102 0.199999H345.502V31.4H331.102V0.199999ZM345.492 0.199999H359.892V31.4H345.492V0.199999ZM374.273 0.199999H388.673V31.4H374.273V0.199999ZM388.664 0.199999H403.064V31.4H388.664V0.199999ZM403.055 0.199999H417.455V31.4H403.055V0.199999ZM417.445 0.199999H431.845V31.4H417.445V0.199999ZM431.836 0.199999H446.236V31.4H431.836V0.199999ZM446.227 0.199999H460.627V31.4H446.227V0.199999ZM590.133 0.199999H604.533V31.4H590.133V0.199999ZM604.523 0.199999H618.923V31.4H604.523V0.199999ZM618.914 0.199999H633.314V31.4H618.914V0.199999ZM633.305 0.199999H647.705V31.4H633.305V0.199999ZM647.695 0.199999H662.095V31.4H647.695V0.199999ZM662.086 0.199999H676.486V31.4H662.086V0.199999ZM791.602 0.199999H806.002V31.4H791.602V0.199999ZM805.992 0.199999H820.392V31.4H805.992V0.199999ZM820.383 0.199999H834.783V31.4H820.383V0.199999ZM834.773 0.199999H849.173V31.4H834.773V0.199999ZM849.164 0.199999H863.564V31.4H849.164V0.199999ZM863.555 0.199999H877.955V31.4H863.555V0.199999ZM877.945 0.199999H892.345V31.4H877.945V0.199999ZM921.117 0.199999H935.517V31.4H921.117V0.199999ZM935.508 0.199999H949.908V31.4H935.508V0.199999ZM949.898 0.199999H964.298V31.4H949.898V0.199999ZM964.289 0.199999H978.689V31.4H964.289V0.199999ZM978.68 0.199999H993.08V31.4H978.68V0.199999ZM993.07 0.199999H1007.47V31.4H993.07V0.199999ZM1036.24 0.199999H1050.64V31.4H1036.24V0.199999ZM1050.63 0.199999H1065.03V31.4H1050.63V0.199999ZM1122.59 0.199999H1136.99V31.4H1122.59V0.199999ZM1136.98 0.199999H1151.38V31.4H1136.98V0.199999ZM1165.76 0.199999H1180.16V31.4H1165.76V0.199999ZM1180.15 0.199999H1194.55V31.4H1180.15V0.199999ZM1194.54 0.199999H1208.94V31.4H1194.54V0.199999ZM1208.93 0.199999H1223.33V31.4H1208.93V0.199999ZM1223.32 0.199999H1237.72V31.4H1223.32V0.199999ZM1237.71 0.199999H1252.11V31.4H1237.71V0.199999ZM0.117188 31.2H14.5172V62.4H0.117188V31.2ZM14.5078 31.2H28.9078V62.4H14.5078V31.2ZM115.242 31.2H129.642V62.4H115.242V31.2ZM129.633 31.2H144.033V62.4H129.633V31.2ZM201.586 31.2H215.986V62.4H201.586V31.2ZM215.977 31.2H230.377V62.4H215.977V31.2ZM244.758 31.2H259.158V62.4H244.758V31.2ZM259.148 31.2H273.548V62.4H259.148V31.2ZM331.102 31.2H345.502V62.4H331.102V31.2ZM345.492 31.2H359.892V62.4H345.492V31.2ZM374.273 31.2H388.673V62.4H374.273V31.2ZM388.664 31.2H403.064V62.4H388.664V31.2ZM446.227 31.2H460.627V62.4H446.227V31.2ZM460.617 31.2H475.017V62.4H460.617V31.2ZM575.742 31.2H590.142V62.4H575.742V31.2ZM590.133 31.2H604.533V62.4H590.133V31.2ZM633.305 31.2H647.705V62.4H633.305V31.2ZM647.695 31.2H662.095V62.4H647.695V31.2ZM662.086 31.2H676.486V62.4H662.086V31.2ZM676.477 31.2H690.877V62.4H676.477V31.2ZM791.602 31.2H806.002V62.4H791.602V31.2ZM805.992 31.2H820.392V62.4H805.992V31.2ZM906.727 31.2H921.127V62.4H906.727V31.2ZM921.117 31.2H935.517V62.4H921.117V31.2ZM993.07 31.2H1007.47V62.4H993.07V31.2ZM1007.46 31.2H1021.86V62.4H1007.46V31.2ZM1036.24 31.2H1050.64V62.4H1036.24V31.2ZM1050.63 31.2H1065.03V62.4H1050.63V31.2ZM1122.59 31.2H1136.99V62.4H1122.59V31.2ZM1136.98 31.2H1151.38V62.4H1136.98V31.2ZM1165.76 31.2H1180.16V62.4H1165.76V31.2ZM1180.15 31.2H1194.55V62.4H1180.15V31.2ZM1237.71 31.2H1252.11V62.4H1237.71V31.2ZM1252.1 31.2H1266.5V62.4H1252.1V31.2ZM0.117188 62.2H14.5172V93.4H0.117188V62.2ZM14.5078 62.2H28.9078V93.4H14.5078V62.2ZM28.8984 62.2H43.2984V93.4H28.8984V62.2ZM43.2891 62.2H57.6891V93.4H43.2891V62.2ZM57.6797 62.2H72.0797V93.4H57.6797V62.2ZM115.242 62.2H129.642V93.4H115.242V62.2ZM129.633 62.2H144.033V93.4H129.633V62.2ZM201.586 62.2H215.986V93.4H201.586V62.2ZM215.977 62.2H230.377V93.4H215.977V62.2ZM244.758 62.2H259.158V93.4H244.758V62.2ZM259.148 62.2H273.548V93.4H259.148V62.2ZM331.102 62.2H345.502V93.4H331.102V62.2ZM345.492 62.2H359.892V93.4H345.492V62.2ZM374.273 62.2H388.673V93.4H374.273V62.2ZM388.664 62.2H403.064V93.4H388.664V62.2ZM403.055 62.2H417.455V93.4H403.055V62.2ZM417.445 62.2H431.845V93.4H417.445V62.2ZM431.836 62.2H446.236V93.4H431.836V62.2ZM446.227 62.2H460.627V93.4H446.227V62.2ZM489.398 62.2H503.798V93.4H489.398V62.2ZM503.789 62.2H518.189V93.4H503.789V62.2ZM518.18 62.2H532.58V93.4H518.18V62.2ZM532.57 62.2H546.97V93.4H532.57V62.2ZM546.961 62.2H561.361V93.4H546.961V62.2ZM575.742 62.2H590.142V93.4H575.742V62.2ZM590.133 62.2H604.533V93.4H590.133V62.2ZM618.914 62.2H633.314V93.4H618.914V62.2ZM633.305 62.2H647.705V93.4H633.305V62.2ZM662.086 62.2H676.486V93.4H662.086V62.2ZM676.477 62.2H690.877V93.4H676.477V62.2ZM705.258 62.2H719.658V93.4H705.258V62.2ZM719.648 62.2H734.048V93.4H719.648V62.2ZM734.039 62.2H748.439V93.4H734.039V62.2ZM748.43 62.2H762.83V93.4H748.43V62.2ZM762.82 62.2H777.22V93.4H762.82V62.2ZM791.602 62.2H806.002V93.4H791.602V62.2ZM805.992 62.2H820.392V93.4H805.992V62.2ZM820.383 62.2H834.783V93.4H820.383V62.2ZM834.773 62.2H849.173V93.4H834.773V62.2ZM849.164 62.2H863.564V93.4H849.164V62.2ZM906.727 62.2H921.127V93.4H906.727V62.2ZM921.117 62.2H935.517V93.4H921.117V62.2ZM993.07 62.2H1007.47V93.4H993.07V62.2ZM1007.46 62.2H1021.86V93.4H1007.46V62.2ZM1036.24 62.2H1050.64V93.4H1036.24V62.2ZM1050.63 62.2H1065.03V93.4H1050.63V62.2ZM1122.59 62.2H1136.99V93.4H1122.59V62.2ZM1136.98 62.2H1151.38V93.4H1136.98V62.2ZM1165.76 62.2H1180.16V93.4H1165.76V62.2ZM1180.15 62.2H1194.55V93.4H1180.15V62.2ZM1194.54 62.2H1208.94V93.4H1194.54V62.2ZM1208.93 62.2H1223.33V93.4H1208.93V62.2ZM1223.32 62.2H1237.72V93.4H1223.32V62.2ZM1237.71 62.2H1252.11V93.4H1237.71V62.2ZM0.117188 93.2H14.5172V124.4H0.117188V93.2ZM14.5078 93.2H28.9078V124.4H14.5078V93.2ZM115.242 93.2H129.642V124.4H115.242V93.2ZM129.633 93.2H144.033V124.4H129.633V93.2ZM201.586 93.2H215.986V124.4H201.586V93.2ZM215.977 93.2H230.377V124.4H215.977V93.2ZM244.758 93.2H259.158V124.4H244.758V93.2ZM259.148 93.2H273.548V124.4H259.148V93.2ZM331.102 93.2H345.502V124.4H331.102V93.2ZM345.492 93.2H359.892V124.4H345.492V93.2ZM374.273 93.2H388.673V124.4H374.273V93.2ZM388.664 93.2H403.064V124.4H388.664V93.2ZM446.227 93.2H460.627V124.4H446.227V93.2ZM460.617 93.2H475.017V124.4H460.617V93.2ZM575.742 93.2H590.142V124.4H575.742V93.2ZM590.133 93.2H604.533V124.4H590.133V93.2ZM604.523 93.2H618.923V124.4H604.523V93.2ZM618.914 93.2H633.314V124.4H618.914V93.2ZM662.086 93.2H676.486V124.4H662.086V93.2ZM676.477 93.2H690.877V124.4H676.477V93.2ZM791.602 93.2H806.002V124.4H791.602V93.2ZM805.992 93.2H820.392V124.4H805.992V93.2ZM906.727 93.2H921.127V124.4H906.727V93.2ZM921.117 93.2H935.517V124.4H921.117V93.2ZM993.07 93.2H1007.47V124.4H993.07V93.2ZM1007.46 93.2H1021.86V124.4H1007.46V93.2ZM1036.24 93.2H1050.64V124.4H1036.24V93.2ZM1050.63 93.2H1065.03V124.4H1050.63V93.2ZM1122.59 93.2H1136.99V124.4H1122.59V93.2ZM1136.98 93.2H1151.38V124.4H1136.98V93.2ZM1165.76 93.2H1180.16V124.4H1165.76V93.2ZM1180.15 93.2H1194.55V124.4H1180.15V93.2ZM1237.71 93.2H1252.11V124.4H1237.71V93.2ZM1252.1 93.2H1266.5V124.4H1252.1V93.2ZM0.117188 124.2H14.5172V155.4H0.117188V124.2ZM14.5078 124.2H28.9078V155.4H14.5078V124.2ZM129.633 124.2H144.033V155.4H129.633V124.2ZM144.023 124.2H158.423V155.4H144.023V124.2ZM158.414 124.2H172.814V155.4H158.414V124.2ZM172.805 124.2H187.205V155.4H172.805V124.2ZM187.195 124.2H201.595V155.4H187.195V124.2ZM201.586 124.2H215.986V155.4H201.586V124.2ZM259.148 124.2H273.548V155.4H259.148V124.2ZM273.539 124.2H287.939V155.4H273.539V124.2ZM287.93 124.2H302.33V155.4H287.93V124.2ZM302.32 124.2H316.72V155.4H302.32V124.2ZM316.711 124.2H331.111V155.4H316.711V124.2ZM331.102 124.2H345.502V155.4H331.102V124.2ZM374.273 124.2H388.673V155.4H374.273V124.2ZM388.664 124.2H403.064V155.4H388.664V124.2ZM446.227 124.2H460.627V155.4H446.227V124.2ZM460.617 124.2H475.017V155.4H460.617V124.2ZM590.133 124.2H604.533V155.4H590.133V124.2ZM604.523 124.2H618.923V155.4H604.523V124.2ZM618.914 124.2H633.314V155.4H618.914V124.2ZM633.305 124.2H647.705V155.4H633.305V124.2ZM647.695 124.2H662.095V155.4H647.695V124.2ZM662.086 124.2H676.486V155.4H662.086V124.2ZM791.602 124.2H806.002V155.4H791.602V124.2ZM805.992 124.2H820.392V155.4H805.992V124.2ZM921.117 124.2H935.517V155.4H921.117V124.2ZM935.508 124.2H949.908V155.4H935.508V124.2ZM949.898 124.2H964.298V155.4H949.898V124.2ZM964.289 124.2H978.689V155.4H964.289V124.2ZM978.68 124.2H993.08V155.4H978.68V124.2ZM993.07 124.2H1007.47V155.4H993.07V124.2ZM1050.63 124.2H1065.03V155.4H1050.63V124.2ZM1065.02 124.2H1079.42V155.4H1065.02V124.2ZM1079.41 124.2H1093.81V155.4H1079.41V124.2ZM1093.8 124.2H1108.2V155.4H1093.8V124.2ZM1108.2 124.2H1122.6V155.4H1108.2V124.2ZM1122.59 124.2H1136.99V155.4H1122.59V124.2ZM1165.76 124.2H1180.16V155.4H1165.76V124.2ZM1180.15 124.2H1194.55V155.4H1180.15V124.2ZM1237.71 124.2H1252.11V155.4H1237.71V124.2ZM1252.1 124.2H1266.5V155.4H1252.1V124.2Z" fill="#D9D9D9"/>
</svg>
