<svg width="420" height="118" viewBox="0 0 420 118" fill="none" xmlns="http://www.w3.org/2000/svg">
<path d="M0.9375 0.799999H10.5375V21.6H0.9375V0.799999ZM10.5312 0.799999H20.1313V21.6H10.5312V0.799999ZM19.581 9.568H26.557V21.6H25.469V10.656H19.581V9.568ZM19.581 11.744H24.381V21.6H23.293V12.832H19.581V11.744ZM48.9062 0.799999H58.5063V21.6H48.9062V0.799999ZM58.5 0.799999H68.1V21.6H58.5V0.799999ZM67.5497 9.568H74.5258V21.6H73.4378V10.656H67.5497V9.568ZM67.5497 11.744H72.3498V21.6H71.2618V12.832H67.5497V11.744ZM77.6875 0.799999H87.2875V21.6H77.6875V0.799999ZM87.2812 0.799999H96.8813V21.6H87.2812V0.799999ZM96.875 0.799999H106.475V21.6H96.875V0.799999ZM106.469 0.799999H116.069V21.6H106.469V0.799999ZM116.062 0.799999H125.663V21.6H116.062V0.799999ZM125.656 0.799999H135.256V21.6H125.656V0.799999ZM135.25 0.799999H144.85V21.6H135.25V0.799999ZM144.3 9.568H151.276V21.6H150.188V10.656H144.3V9.568ZM144.3 11.744H149.1V21.6H148.012V12.832H144.3V11.744ZM154.438 0.799999H164.038V21.6H154.438V0.799999ZM164.031 0.799999H173.631V21.6H164.031V0.799999ZM173.081 9.568H180.057V21.6H178.969V10.656H173.081V9.568ZM173.081 11.744H177.881V21.6H176.793V12.832H173.081V11.744ZM231.188 0.799999H240.788V21.6H231.188V0.799999ZM240.781 0.799999H250.381V21.6H240.781V0.799999ZM249.831 9.568H256.807V21.6H255.719V10.656H249.831V9.568ZM249.831 11.744H254.631V21.6H253.543V12.832H249.831V11.744ZM317.531 0.799999H327.131V21.6H317.531V0.799999ZM327.125 0.799999H336.725V21.6H327.125V0.799999ZM336.719 0.799999H346.319V21.6H336.719V0.799999ZM346.312 0.799999H355.913V21.6H346.312V0.799999ZM355.906 0.799999H365.506V21.6H355.906V0.799999ZM365.5 0.799999H375.1V21.6H365.5V0.799999ZM374.55 9.568H381.526V21.6H380.438V10.656H374.55V9.568ZM374.55 11.744H379.35V21.6H378.262V12.832H374.55V11.744ZM394.281 0.799999H403.881V21.6H394.281V0.799999ZM403.875 0.799999H413.475V21.6H403.875V0.799999ZM412.925 9.568H419.901V21.6H418.813V10.656H412.925V9.568ZM412.925 11.744H417.725V21.6H416.637V12.832H412.925V11.744ZM0.9375 21.8H10.5375V42.6H0.9375V21.8ZM10.5312 21.8H20.1313V42.6H10.5312V21.8ZM23.293 21.8H24.381V42.6H23.293V21.8ZM25.469 21.8H26.557V42.6H25.469V21.8ZM48.9062 21.8H58.5063V42.6H48.9062V21.8ZM58.5 21.8H68.1V42.6H58.5V21.8ZM71.2618 21.8H72.3498V42.6H71.2618V21.8ZM73.4378 21.8H74.5258V42.6H73.4378V21.8ZM77.6875 21.8H87.2875V42.6H77.6875V21.8ZM87.2812 21.8H96.8813V42.6H87.2812V21.8ZM100.043 30.568H107.019V31.656H101.131V42.6H100.043V30.568ZM102.219 32.744H107.019V33.832H103.307V42.6H102.219V32.744ZM105.925 30.568H116.613V31.656H105.925V30.568ZM105.925 32.744H116.613V33.832H105.925V32.744ZM115.518 30.568H126.207V31.656H115.518V30.568ZM115.518 32.744H126.207V33.832H115.518V32.744ZM125.112 30.568H135.8V31.656H125.112V30.568ZM125.112 32.744H135.8V33.832H125.112V32.744ZM134.706 30.568H145.394V31.656H134.706V30.568ZM134.706 32.744H145.394V33.832H134.706V32.744ZM144.3 32.744H150.188V21.8H151.276V33.832H144.3V32.744ZM144.3 30.568H148.012V21.8H149.1V31.656H144.3V30.568ZM154.438 21.8H164.038V42.6H154.438V21.8ZM164.031 21.8H173.631V42.6H164.031V21.8ZM176.793 21.8H177.881V42.6H176.793V21.8ZM178.969 21.8H180.057V42.6H178.969V21.8ZM231.188 21.8H240.788V42.6H231.188V21.8ZM240.781 21.8H250.381V42.6H240.781V21.8ZM253.543 21.8H254.631V42.6H253.543V21.8ZM255.719 21.8H256.807V42.6H255.719V21.8ZM307.938 21.8H317.538V42.6H307.938V21.8ZM317.531 21.8H327.131V42.6H317.531V21.8ZM330.293 30.568H337.269V31.656H331.381V42.6H330.293V30.568ZM332.469 32.744H337.269V33.832H333.557V42.6H332.469V32.744ZM336.175 30.568H346.863V31.656H336.175V30.568ZM336.175 32.744H346.863V33.832H336.175V32.744ZM345.768 30.568H356.457V31.656H345.768V30.568ZM345.768 32.744H356.457V33.832H345.768V32.744ZM355.362 30.568H366.05V31.656H355.362V30.568ZM355.362 32.744H366.05V33.832H355.362V32.744ZM365.5 21.8H375.1V42.6H365.5V21.8ZM375.094 21.8H384.694V42.6H375.094V21.8ZM384.143 30.568H391.12V42.6H390.032V31.656H384.143V30.568ZM384.143 32.744H388.944V42.6H387.856V33.832H384.143V32.744ZM394.281 21.8H403.881V42.6H394.281V21.8ZM403.875 21.8H413.475V42.6H403.875V21.8ZM416.637 21.8H417.725V42.6H416.637V21.8ZM418.813 21.8H419.901V42.6H418.813V21.8ZM0.9375 42.8H10.5375V63.6H0.9375V42.8ZM10.5312 42.8H20.1313V63.6H10.5312V42.8ZM20.125 42.8H29.725V63.6H20.125V42.8ZM29.7188 42.8H39.3188V63.6H29.7188V42.8ZM39.3125 42.8H48.9125V63.6H39.3125V42.8ZM48.9062 42.8H58.5063V63.6H48.9062V42.8ZM58.5 42.8H68.1V63.6H58.5V42.8ZM71.2618 42.8H72.3498V63.6H71.2618V42.8ZM73.4378 42.8H74.5258V63.6H73.4378V42.8ZM77.6875 42.8H87.2875V63.6H77.6875V42.8ZM87.2812 42.8H96.8813V63.6H87.2812V42.8ZM96.875 42.8H106.475V63.6H96.875V42.8ZM106.469 42.8H116.069V63.6H106.469V42.8ZM116.062 42.8H125.663V63.6H116.062V42.8ZM125.112 51.568H132.088V63.6H131V52.656H125.112V51.568ZM125.112 53.744H129.912V63.6H128.824V54.832H125.112V53.744ZM154.438 42.8H164.038V63.6H154.438V42.8ZM164.031 42.8H173.631V63.6H164.031V42.8ZM176.793 42.8H177.881V63.6H176.793V42.8ZM178.969 42.8H180.057V63.6H178.969V42.8ZM231.188 42.8H240.788V63.6H231.188V42.8ZM240.781 42.8H250.381V63.6H240.781V42.8ZM253.543 42.8H254.631V63.6H253.543V42.8ZM255.719 42.8H256.807V63.6H255.719V42.8ZM307.938 42.8H317.538V63.6H307.938V42.8ZM317.531 42.8H327.131V63.6H317.531V42.8ZM330.293 42.8H331.381V63.6H330.293V42.8ZM332.469 42.8H333.557V63.6H332.469V42.8ZM365.5 42.8H375.1V63.6H365.5V42.8ZM375.094 42.8H384.694V63.6H375.094V42.8ZM387.856 42.8H388.944V63.6H387.856V42.8ZM390.032 42.8H391.12V63.6H390.032V42.8ZM394.281 42.8H403.881V63.6H394.281V42.8ZM403.875 42.8H413.475V63.6H403.875V42.8ZM416.637 42.8H417.725V63.6H416.637V42.8ZM418.813 42.8H419.901V63.6H418.813V42.8ZM0.9375 63.8H10.5375V84.6H0.9375V63.8ZM10.5312 63.8H20.1313V84.6H10.5312V63.8ZM23.293 72.568H30.269V73.656H24.381V84.6H23.293V72.568ZM25.469 74.744H30.269V75.832H26.557V84.6H25.469V74.744ZM29.1747 72.568H39.8628V73.656H29.1747V72.568ZM29.1747 74.744H39.8628V75.832H29.1747V74.744ZM38.7685 72.568H49.4565V73.656H38.7685V72.568ZM38.7685 74.744H49.4565V75.832H38.7685V74.744ZM48.9062 63.8H58.5063V84.6H48.9062V63.8ZM58.5 63.8H68.1V84.6H58.5V63.8ZM71.2618 63.8H72.3498V84.6H71.2618V63.8ZM73.4378 63.8H74.5258V84.6H73.4378V63.8ZM77.6875 63.8H87.2875V84.6H77.6875V63.8ZM87.2812 63.8H96.8813V84.6H87.2812V63.8ZM100.043 72.568H107.019V73.656H101.131V84.6H100.043V72.568ZM102.219 74.744H107.019V75.832H103.307V84.6H102.219V74.744ZM105.925 72.568H116.613V73.656H105.925V72.568ZM105.925 74.744H116.613V75.832H105.925V74.744ZM115.518 72.568H126.207V73.656H115.518V72.568ZM115.518 74.744H126.207V75.832H115.518V74.744ZM125.112 74.744H131V63.8H132.088V75.832H125.112V74.744ZM125.112 72.568H128.824V63.8H129.912V73.656H125.112V72.568ZM154.438 63.8H164.038V84.6H154.438V63.8ZM164.031 63.8H173.631V84.6H164.031V63.8ZM176.793 63.8H177.881V84.6H176.793V63.8ZM178.969 63.8H180.057V84.6H178.969V63.8ZM231.188 63.8H240.788V84.6H231.188V63.8ZM240.781 63.8H250.381V84.6H240.781V63.8ZM253.543 63.8H254.631V84.6H253.543V63.8ZM255.719 63.8H256.807V84.6H255.719V63.8ZM307.938 63.8H317.538V84.6H307.938V63.8ZM317.531 63.8H327.131V84.6H317.531V63.8ZM330.293 63.8H331.381V84.6H330.293V63.8ZM332.469 63.8H333.557V84.6H332.469V63.8ZM365.5 63.8H375.1V84.6H365.5V63.8ZM375.094 63.8H384.694V84.6H375.094V63.8ZM387.856 63.8H388.944V84.6H387.856V63.8ZM390.032 63.8H391.12V84.6H390.032V63.8ZM397.449 63.8H398.537V74.744H404.425V75.832H397.449V63.8ZM399.625 63.8H400.713V72.568H404.425V73.656H399.625V63.8ZM403.331 72.568H414.019V73.656H403.331V72.568ZM403.331 74.744H414.019V75.832H403.331V74.744ZM412.925 74.744H418.813V63.8H419.901V75.832H412.925V74.744ZM412.925 72.568H416.637V63.8H417.725V73.656H412.925V72.568ZM0.9375 84.8H10.5375V105.6H0.9375V84.8ZM10.5312 84.8H20.1313V105.6H10.5312V84.8ZM23.293 84.8H24.381V105.6H23.293V84.8ZM25.469 84.8H26.557V105.6H25.469V84.8ZM48.9062 84.8H58.5063V105.6H48.9062V84.8ZM58.5 84.8H68.1V105.6H58.5V84.8ZM71.2618 84.8H72.3498V105.6H71.2618V84.8ZM73.4378 84.8H74.5258V105.6H73.4378V84.8ZM77.6875 84.8H87.2875V105.6H77.6875V84.8ZM87.2812 84.8H96.8813V105.6H87.2812V84.8ZM96.875 84.8H106.475V105.6H96.875V84.8ZM106.469 84.8H116.069V105.6H106.469V84.8ZM116.062 84.8H125.663V105.6H116.062V84.8ZM125.656 84.8H135.256V105.6H125.656V84.8ZM135.25 84.8H144.85V105.6H135.25V84.8ZM144.3 93.568H151.276V105.6H150.188V94.656H144.3V93.568ZM144.3 95.744H149.1V105.6H148.012V96.832H144.3V95.744ZM154.438 84.8H164.038V105.6H154.438V84.8ZM164.031 84.8H173.631V105.6H164.031V84.8ZM173.625 84.8H183.225V105.6H173.625V84.8ZM183.219 84.8H192.819V105.6H183.219V84.8ZM192.812 84.8H202.413V105.6H192.812V84.8ZM202.406 84.8H212.006V105.6H202.406V84.8ZM212 84.8H221.6V105.6H212V84.8ZM221.05 93.568H228.026V105.6H226.938V94.656H221.05V93.568ZM221.05 95.744H225.85V105.6H224.762V96.832H221.05V95.744ZM231.188 84.8H240.788V105.6H231.188V84.8ZM240.781 84.8H250.381V105.6H240.781V84.8ZM250.375 84.8H259.975V105.6H250.375V84.8ZM259.969 84.8H269.569V105.6H259.969V84.8ZM269.562 84.8H279.163V105.6H269.562V84.8ZM279.156 84.8H288.756V105.6H279.156V84.8ZM288.75 84.8H298.35V105.6H288.75V84.8ZM297.8 93.568H304.776V105.6H303.688V94.656H297.8V93.568ZM297.8 95.744H302.6V105.6H301.512V96.832H297.8V95.744ZM311.106 84.8H312.194V95.744H318.082V96.832H311.106V84.8ZM313.282 84.8H314.37V93.568H318.082V94.656H313.282V84.8ZM317.531 84.8H327.131V105.6H317.531V84.8ZM327.125 84.8H336.725V105.6H327.125V84.8ZM336.719 84.8H346.319V105.6H336.719V84.8ZM346.312 84.8H355.913V105.6H346.312V84.8ZM355.906 84.8H365.506V105.6H355.906V84.8ZM365.5 84.8H375.1V105.6H365.5V84.8ZM378.262 93.568H385.238V94.656H379.35V105.6H378.262V93.568ZM380.438 95.744H385.238V96.832H381.526V105.6H380.438V95.744ZM384.143 95.744H390.032V84.8H391.12V96.832H384.143V95.744ZM384.143 93.568H387.856V84.8H388.944V94.656H384.143V93.568ZM394.281 84.8H403.881V105.6H394.281V84.8ZM403.875 84.8H413.475V105.6H403.875V84.8ZM412.925 93.568H419.901V105.6H418.813V94.656H412.925V93.568ZM412.925 95.744H417.725V105.6H416.637V96.832H412.925V95.744ZM4.1055 105.8H5.1935V116.744H11.0815V117.832H4.1055V105.8ZM6.2815 105.8H7.3695V114.568H11.0815V115.656H6.2815V105.8ZM9.98725 114.568H20.6753V115.656H9.98725V114.568ZM9.98725 116.744H20.6753V117.832H9.98725V116.744ZM19.581 116.744H25.469V105.8H26.557V117.832H19.581V116.744ZM19.581 114.568H23.293V105.8H24.381V115.656H19.581V114.568ZM52.0743 105.8H53.1623V116.744H59.0503V117.832H52.0743V105.8ZM54.2503 105.8H55.3383V114.568H59.0503V115.656H54.2503V105.8ZM57.956 114.568H68.644V115.656H57.956V114.568ZM57.956 116.744H68.644V117.832H57.956V116.744ZM67.5497 116.744H73.4378V105.8H74.5258V117.832H67.5497V116.744ZM67.5497 114.568H71.2618V105.8H72.3498V115.656H67.5497V114.568ZM80.8555 105.8H81.9435V116.744H87.8315V117.832H80.8555V105.8ZM83.0315 105.8H84.1195V114.568H87.8315V115.656H83.0315V105.8ZM86.7372 114.568H97.4253V115.656H86.7372V114.568ZM86.7372 116.744H97.4253V117.832H86.7372V116.744ZM96.331 114.568H107.019V115.656H96.331V114.568ZM96.331 116.744H107.019V117.832H96.331V116.744ZM105.925 114.568H116.613V115.656H105.925V114.568ZM105.925 116.744H116.613V117.832H105.925V116.744ZM115.518 114.568H126.207V115.656H115.518V114.568ZM115.518 116.744H126.207V117.832H115.518V116.744ZM125.112 114.568H135.8V115.656H125.112V114.568ZM125.112 116.744H135.8V117.832H125.112V116.744ZM134.706 114.568H145.394V115.656H134.706V114.568ZM134.706 116.744H145.394V117.832H134.706V116.744ZM144.3 116.744H150.188V105.8H151.276V117.832H144.3V116.744ZM144.3 114.568H148.012V105.8H149.1V115.656H144.3V114.568ZM157.606 105.8H158.694V116.744H164.582V117.832H157.606V105.8ZM159.782 105.8H160.87V114.568H164.582V115.656H159.782V105.8ZM163.487 114.568H174.175V115.656H163.487V114.568ZM163.487 116.744H174.175V117.832H163.487V116.744ZM173.081 114.568H183.769V115.656H173.081V114.568ZM173.081 116.744H183.769V117.832H173.081V116.744ZM182.675 114.568H193.363V115.656H182.675V114.568ZM182.675 116.744H193.363V117.832H182.675V116.744ZM192.268 114.568H202.957V115.656H192.268V114.568ZM192.268 116.744H202.957V117.832H192.268V116.744ZM201.862 114.568H212.55V115.656H201.862V114.568ZM201.862 116.744H212.55V117.832H201.862V116.744ZM211.456 114.568H222.144V115.656H211.456V114.568ZM211.456 116.744H222.144V117.832H211.456V116.744ZM221.05 116.744H226.938V105.8H228.026V117.832H221.05V116.744ZM221.05 114.568H224.762V105.8H225.85V115.656H221.05V114.568ZM234.356 105.8H235.444V116.744H241.332V117.832H234.356V105.8ZM236.532 105.8H237.62V114.568H241.332V115.656H236.532V105.8ZM240.237 114.568H250.925V115.656H240.237V114.568ZM240.237 116.744H250.925V117.832H240.237V116.744ZM249.831 114.568H260.519V115.656H249.831V114.568ZM249.831 116.744H260.519V117.832H249.831V116.744ZM259.425 114.568H270.113V115.656H259.425V114.568ZM259.425 116.744H270.113V117.832H259.425V116.744ZM269.018 114.568H279.707V115.656H269.018V114.568ZM269.018 116.744H279.707V117.832H269.018V116.744ZM278.612 114.568H289.3V115.656H278.612V114.568ZM278.612 116.744H289.3V117.832H278.612V116.744ZM288.206 114.568H298.894V115.656H288.206V114.568ZM288.206 116.744H298.894V117.832H288.206V116.744ZM297.8 116.744H303.688V105.8H304.776V117.832H297.8V116.744ZM297.8 114.568H301.512V105.8H302.6V115.656H297.8V114.568ZM320.699 105.8H321.787V116.744H327.675V117.832H320.699V105.8ZM322.875 105.8H323.963V114.568H327.675V115.656H322.875V105.8ZM326.581 114.568H337.269V115.656H326.581V114.568ZM326.581 116.744H337.269V117.832H326.581V116.744ZM336.175 114.568H346.863V115.656H336.175V114.568ZM336.175 116.744H346.863V117.832H336.175V116.744ZM345.768 114.568H356.457V115.656H345.768V114.568ZM345.768 116.744H356.457V117.832H345.768V116.744ZM355.362 114.568H366.05V115.656H355.362V114.568ZM355.362 116.744H366.05V117.832H355.362V116.744ZM364.956 114.568H375.644V115.656H364.956V114.568ZM364.956 116.744H375.644V117.832H364.956V116.744ZM374.55 116.744H380.438V105.8H381.526V117.832H374.55V116.744ZM374.55 114.568H378.262V105.8H379.35V115.656H374.55V114.568ZM397.449 105.8H398.537V116.744H404.425V117.832H397.449V105.8ZM399.625 105.8H400.713V114.568H404.425V115.656H399.625V105.8ZM403.331 114.568H414.019V115.656H403.331V114.568ZM403.331 116.744H414.019V117.832H403.331V116.744ZM412.925 116.744H418.813V105.8H419.901V117.832H412.925V116.744ZM412.925 114.568H416.637V105.8H417.725V115.656H412.925V114.568Z" fill="#D9D9D9"/>
</svg>
