<svg width="155" height="148" viewBox="0 0 155 148" fill="none" xmlns="http://www.w3.org/2000/svg">
<path d="M85.25 0H69.75V29.6H54.25V14.8H38.75V29.6H54.25V44.4H69.75V66.6H46.5V51.8H31V37H15.5V51.8H31V66.6H0V81.4H31V96.2H15.5V111H31V96.2H46.5V81.4H69.75V103.6H54.25V118.4H38.75V133.2H54.25V118.4H69.75V148H85.25V118.4H100.75V133.2H116.25V118.4H100.75V103.6H85.25V81.4H108.5V96.2H124V111H139.5V96.2H124V81.4H155V66.6H124V51.8H139.5V37H124V51.8H108.5V66.6H85.25V44.4H100.75V29.6H116.25V14.8H100.75V29.6H85.25V0Z" fill="#DAD9D8"/>
</svg>
